<svg width="58" height="58" viewBox="0 0 58 58" fill="none" xmlns="http://www.w3.org/2000/svg">
<circle cx="29" cy="29" r="29" fill="#2948FF"/>
<path fill-rule="evenodd" clip-rule="evenodd" d="M29.8203 15.8007L38.6771 18.8233C39.6677 19.1619 40.3332 20.0739 40.3332 21.0952V29.9496C40.3332 32.6336 39.3357 35.2322 37.5259 37.2601C36.6972 38.1894 35.6338 38.9881 34.2755 39.7027L29.4883 42.216C29.3387 42.2933 29.1741 42.3333 29.0081 42.3333C28.8434 42.3333 28.6788 42.2933 28.5292 42.216L23.7324 39.7014C22.3713 38.9854 21.3066 38.1868 20.4793 37.2615C18.6667 35.2308 17.6665 32.6309 17.6665 29.9443C17.6665 29.403 18.1193 28.963 18.6764 28.963C19.2334 28.963 19.6862 29.403 19.6862 29.9443C19.6862 32.1603 20.5094 34.3015 22.0036 35.9762C22.6691 36.7215 23.5486 37.3748 24.6915 37.9748L29.0081 40.2374L33.315 37.9761C34.4552 37.3775 35.3347 36.7241 36.0015 35.9762C37.493 34.3029 38.3148 32.1643 38.3148 29.9496V21.0952C38.3148 20.9059 38.1914 20.7379 38.0089 20.6752L29.1521 17.6526C29.0547 17.6193 28.9463 17.6193 28.8475 17.6526L19.9922 20.6752C19.8097 20.7379 19.6862 20.9059 19.6862 21.0952V23.6285C19.6862 24.1711 19.2334 24.6111 18.6764 24.6111C18.1193 24.6111 17.6665 24.1711 17.6665 23.6285V21.0952C17.6665 20.0739 18.3333 19.1619 19.324 18.8233L28.1793 15.8007C28.709 15.622 29.2921 15.622 29.8203 15.8007ZM28.0482 32.09C27.7792 32.09 27.524 31.986 27.3347 31.802L24.7881 29.3274C24.3943 28.9434 24.3943 28.3248 24.7881 27.9408C25.1833 27.5568 25.8213 27.5568 26.2151 27.9408L28.0482 29.7207L32.5788 25.3195C32.9725 24.9368 33.6119 24.9368 34.0057 25.3195C34.3995 25.7022 34.3995 26.3235 34.0057 26.7061L28.7616 31.802C28.5723 31.986 28.3157 32.09 28.0482 32.09Z" fill="white"/>
</svg>
