<svg width="58" height="58" viewBox="0 0 58 58" fill="none" xmlns="http://www.w3.org/2000/svg">
<circle cx="29" cy="29" r="29" fill="#2948FF"/>
<path d="M41.182 30H37.182C36.6515 30 36.1428 30.2107 35.7678 30.5858C35.3927 30.9609 35.182 31.4696 35.182 32V37C35.182 37.5304 35.3927 38.0391 35.7678 38.4142C36.1428 38.7893 36.6515 39 37.182 39H39.182C39.7124 39 40.2211 38.7893 40.5962 38.4142C40.9713 38.0391 41.182 37.5304 41.182 37V30ZM41.182 30C41.182 28.4165 40.8686 26.8486 40.2598 25.3868C39.651 23.925 38.759 22.5981 37.635 21.4826C36.5111 20.3672 35.1775 19.4852 33.7111 18.8875C32.2447 18.2899 30.6745 17.9883 29.091 18.0003C27.5075 17.9883 25.9373 18.2899 24.4709 18.8875C23.0045 19.4852 21.6709 20.3672 20.5469 21.4826C19.423 22.5981 18.5309 23.925 17.9222 25.3868C17.3134 26.8486 17 28.4165 17 30V37C17 37.5304 17.2107 38.0391 17.5858 38.4142C17.9609 38.7893 18.4696 39 19 39H21C21.5304 39 22.0391 38.7893 22.4142 38.4142C22.7893 38.0391 23 37.5304 23 37V32C23 31.4696 22.7893 30.9609 22.4142 30.5858C22.0391 30.2107 21.5304 30 21 30H17" stroke="white" stroke-width="2" stroke-linecap="round" stroke-linejoin="round"/>
</svg>
