<svg width="14" height="17" viewBox="0 0 14 17" fill="none" xmlns="http://www.w3.org/2000/svg">
<path d="M11.4123 8.93641C11.3945 6.81206 13.1509 5.77956 13.2281 5.73209C12.2312 4.28422 10.6883 4.08246 10.1484 4.06466C8.85476 3.92818 7.59677 4.842 6.93811 4.842C6.26757 4.842 5.24694 4.08246 4.1551 4.10027C2.74876 4.124 1.4255 4.93695 0.707494 6.2068C-0.781918 8.78806 0.327724 12.5858 1.7578 14.6745C2.4758 15.6951 3.30655 16.8404 4.40432 16.7988C5.47243 16.7573 5.87593 16.1164 7.16359 16.1164C8.44532 16.1164 8.81915 16.7988 9.93473 16.7751C11.0859 16.7573 11.8039 15.7485 12.4982 14.716C13.323 13.5471 13.6553 12.3899 13.6672 12.3306C13.6375 12.3187 11.436 11.4761 11.4123 8.93641Z" fill="white"/>
<path d="M9.30611 2.694C9.8817 1.97599 10.2733 0.996898 10.1665 0C9.33578 0.0356035 8.29141 0.57559 7.69209 1.28173C7.16397 1.90479 6.68925 2.91949 6.80793 3.87485C7.74549 3.94605 8.70679 3.40013 9.30611 2.694Z" fill="white"/>
</svg>
