<svg width="22" height="20" viewBox="0 0 22 20" fill="none" xmlns="http://www.w3.org/2000/svg">
<path d="M11 10C11.5933 10 12.1734 9.82405 12.6667 9.49441C13.1601 9.16476 13.5446 8.69623 13.7716 8.14805C13.9987 7.59987 14.0581 6.99667 13.9424 6.41473C13.8266 5.83279 13.5409 5.29824 13.1213 4.87868C12.7018 4.45912 12.1672 4.1734 11.5853 4.05764C11.0033 3.94189 10.4001 4.0013 9.85195 4.22836C9.30377 4.45542 8.83524 4.83994 8.50559 5.33329C8.17595 5.82664 8 6.40666 8 7C8 7.79565 8.31607 8.55871 8.87868 9.12132C9.44129 9.68393 10.2044 10 11 10ZM11 6C11.1978 6 11.3911 6.05865 11.5556 6.16853C11.72 6.27841 11.8482 6.43459 11.9239 6.61732C11.9996 6.80004 12.0194 7.00111 11.9808 7.19509C11.9422 7.38907 11.847 7.56725 11.7071 7.70711C11.5673 7.84696 11.3891 7.9422 11.1951 7.98079C11.0011 8.01937 10.8 7.99957 10.6173 7.92388C10.4346 7.84819 10.2784 7.72002 10.1685 7.55557C10.0586 7.39112 10 7.19778 10 7C10 6.73478 10.1054 6.48043 10.2929 6.29289C10.4804 6.10536 10.7348 6 11 6ZM11.71 12.29C11.6149 12.199 11.5028 12.1276 11.38 12.08C11.2603 12.0271 11.1309 11.9998 11 11.9998C10.8691 11.9998 10.7397 12.0271 10.62 12.08C10.4972 12.1276 10.3851 12.199 10.29 12.29L8 14.54C7.80639 14.7336 7.69762 14.9962 7.69762 15.27C7.69762 15.5438 7.80639 15.8064 8 16C8.19361 16.1936 8.4562 16.3024 8.73 16.3024C9.0038 16.3024 9.26639 16.1936 9.46 16L10 15.41V19C10 19.2652 10.1054 19.5196 10.2929 19.7071C10.4804 19.8946 10.7348 20 11 20C11.2652 20 11.5196 19.8946 11.7071 19.7071C11.8946 19.5196 12 19.2652 12 19V15.41L12.54 16C12.7336 16.1936 12.9962 16.3024 13.27 16.3024C13.5438 16.3024 13.8064 16.1936 14 16C14.1936 15.8064 14.3024 15.5438 14.3024 15.27C14.3024 14.9962 14.1936 14.7336 14 14.54L11.71 12.29ZM4 7C4 7.19778 4.05865 7.39112 4.16853 7.55557C4.27841 7.72002 4.43459 7.84819 4.61732 7.92388C4.80004 7.99957 5.00111 8.01937 5.19509 7.98079C5.38907 7.9422 5.56726 7.84696 5.70711 7.70711C5.84696 7.56725 5.9422 7.38907 5.98079 7.19509C6.01937 7.00111 5.99957 6.80004 5.92388 6.61732C5.84819 6.43459 5.72002 6.27841 5.55557 6.16853C5.39112 6.05865 5.19778 6 5 6C4.73478 6 4.48043 6.10536 4.29289 6.29289C4.10536 6.48043 4 6.73478 4 7ZM3 14L6 14C6.26522 14 6.51957 13.8946 6.70711 13.7071C6.89464 13.5196 7 13.2652 7 13C7 12.7348 6.89464 12.4804 6.70711 12.2929C6.51957 12.1054 6.26522 12 6 12H3C2.73478 12 2.48043 11.8946 2.29289 11.7071C2.10536 11.5196 2 11.2652 2 11L2 3C2 2.73478 2.10536 2.48043 2.29289 2.29289C2.48043 2.10536 2.73478 2 3 2L19 2C19.2652 2 19.5196 2.10536 19.7071 2.29289C19.8946 2.48043 20 2.73478 20 3L20 11C20 11.2652 19.8946 11.5196 19.7071 11.7071C19.5196 11.8946 19.2652 12 19 12H16C15.7348 12 15.4804 12.1054 15.2929 12.2929C15.1054 12.4804 15 12.7348 15 13C15 13.2652 15.1054 13.5196 15.2929 13.7071C15.4804 13.8946 15.7348 14 16 14H19C19.7956 14 20.5587 13.6839 21.1213 13.1213C21.6839 12.5587 22 11.7956 22 11L22 3C22 2.20435 21.6839 1.44129 21.1213 0.878679C20.5587 0.316071 19.7956 0 19 0L3 0C2.20435 0 1.44129 0.316071 0.878679 0.878679C0.316071 1.44129 0 2.20435 0 3L0 11C0 11.7956 0.316071 12.5587 0.878679 13.1213C1.44129 13.6839 2.20435 14 3 14ZM18 7C18 6.80222 17.9414 6.60888 17.8315 6.44443C17.7216 6.27998 17.5654 6.15181 17.3827 6.07612C17.2 6.00043 16.9989 5.98063 16.8049 6.01921C16.6109 6.0578 16.4327 6.15304 16.2929 6.29289C16.153 6.43275 16.0578 6.61093 16.0192 6.80491C15.9806 6.99889 16.0004 7.19996 16.0761 7.38268C16.1518 7.56541 16.28 7.72159 16.4444 7.83147C16.6089 7.94135 16.8022 8 17 8C17.2652 8 17.5196 7.89464 17.7071 7.70711C17.8946 7.51957 18 7.26522 18 7Z" fill="#2948FF"/>
</svg>
