<svg width="69" height="69" viewBox="0 0 69 69" fill="none" xmlns="http://www.w3.org/2000/svg">
<path d="M33.0718 0H35.1878C45.4804 0.580075 52.819 4.48617 58.2596 9.9604C63.7004 15.4346 67.7222 22.6547 68.2596 32.9851V35.0317C67.7371 45.5273 63.6442 52.4544 58.2596 58.0906C52.6032 63.4442 45.6497 67.5005 35.1537 68.0166H33.0718C22.7806 67.4353 15.4407 63.5308 9.99999 58.0563C4.55932 52.5821 0.53743 45.3622 0 35.0317V32.9851C0.0267832 32.9776 0.0398805 32.9566 0.0341413 32.9169C0.548761 22.6259 4.59258 15.3308 10.0001 9.92628C15.4326 4.49661 22.8472 0.562573 33.0718 0ZM26.3823 4.87784C24.3545 5.42055 22.5359 6.10976 20.8875 6.92442C15.8702 9.40401 11.7327 12.9515 8.83963 17.4987C6.01592 21.9372 3.57099 27.647 3.92506 35.1339C4.1483 39.8541 5.22596 43.8246 6.92831 47.2092C10.2902 53.892 15.4084 58.816 22.4917 61.8087C25.9944 63.2886 30.3346 64.3267 35.2221 64.094C39.9102 63.8709 43.9726 62.8177 47.3383 61.1264C53.9346 57.8116 59.133 52.6971 62.0143 45.6402C63.4715 42.0704 64.5734 37.9465 64.3351 32.9509C63.8842 23.4874 60.0326 17.0707 54.9495 12.1775C52.4344 9.75626 49.4059 7.69673 45.8369 6.20815C42.3741 4.76385 37.8661 3.69298 33.0381 3.92271C30.6646 4.03567 28.4255 4.331 26.3823 4.87784Z" fill="#4F5665"/>
<path d="M30.99 25.1737C32.0714 25.8894 33.1774 26.5805 34.1983 27.3568C31.8921 28.804 29.6313 30.2967 27.3382 31.757C27.6864 32.0231 28.0823 32.2413 28.4303 32.5074C30.7425 31.0434 33.0554 29.5803 35.3588 28.1071C36.3918 28.7462 37.4089 29.4011 38.3623 30.1198C36.0543 31.5767 33.8236 33.1107 31.5363 34.5881C31.8752 34.8636 32.2906 35.0623 32.6624 35.3045C35.0265 33.8583 37.3318 32.3533 39.659 30.8703V26.0264H44.7785V35.6799C46.2232 35.7593 47.8162 35.6912 49.318 35.7137V40.2506H39.659V35.6455C36.8211 37.3686 33.9129 39.3173 31.0583 41.1373C28.0855 39.2081 25.2205 37.1707 22.2528 35.2363C21.3931 37.9597 19.3513 40.0085 15.9727 40.2506C13.8657 40.4012 11.4714 40.1381 9.04443 40.2506V26.0264C12.0786 26.2273 15.4103 25.6209 17.8158 26.3675C19.9427 27.0277 21.4506 28.7238 22.1502 30.836C25.1201 28.9718 28.0423 27.0602 30.99 25.1737ZM13.9249 30.5973V35.7139C15.1444 35.7199 16.0719 35.7906 16.7917 35.2364C17.8626 34.4121 18.0783 32.3684 17.133 31.2795C16.5021 30.5529 15.4369 30.4004 13.9589 30.4949C13.9194 30.5007 13.9219 30.5489 13.9249 30.5973ZM50.6487 26.0264H55.7682V35.7139H60.2733V40.2508H50.6143V26.1288C50.6117 26.0804 50.6089 26.0322 50.6487 26.0264Z" fill="#4F5665"/>
</svg>
