<svg width="80" height="53" viewBox="0 0 80 53" fill="none" xmlns="http://www.w3.org/2000/svg">
<path d="M56.1355 1.59825C59.0368 0.173278 60.4746 0.360274 60.5069 1.80463C60.5457 3.68092 60.2683 6.17602 60.0684 7.98141C58.9916 17.794 57.1927 25.8122 57.0573 35.8872C61.7963 23.6187 65.768 15.0918 70.8874 4.58998C72.5123 1.24364 73.5503 1.86911 74.8849 1.27588C80.0817 -1.03877 80.2752 0.379665 79.598 3.21021C77.0771 13.694 70.6229 46.7029 69.6367 51.7857C69.3528 53.2563 67.754 52.6329 67.3412 52.0578C65.4909 49.4981 63.4019 49.4581 63.6338 47.7559C64.7945 39.2818 68.9724 18.0203 70.0622 13.0105C64.5106 24.3918 58.7531 38.6197 55.7936 46.6869C55.1681 48.4 54.0269 48.2743 53.3178 47.0209C52.3183 45.2602 50.3776 44.3612 50.0551 42.2806C49.0429 35.6655 51.2158 23.0565 51.5187 15.0795C48.4949 23.7935 43.4206 40.7113 41.1962 48.3548C40.2807 51.5174 37.2244 51.0015 38.0368 47.919C41.4153 35.0915 48.6948 12.4044 51.8412 4.24822C52.5829 2.32674 54.5235 2.39121 56.1355 1.59825Z" fill="#4F5665"/>
<path d="M37.7082 0.0250658C36.7283 -0.213443 33.8848 1.32109 32.1375 1.62407C31.5831 1.72078 31.0543 2.30747 30.8673 2.72667C28.069 9.15491 25.5609 15.2827 23.3881 20.865C20.6092 21.3395 17.3597 21.9643 13.7232 22.7811C16.328 16.0995 18.9587 9.50941 21.5248 3.17145C22.7885 0.0507653 19.4616 -0.245789 18.172 2.91355C16.4956 7.02073 13.3556 14.7159 9.88032 23.6851C7.32705 24.3112 4.61913 25.0268 1.78859 25.8445C-0.268273 26.4383 -0.351985 26.9863 0.537802 28.2197C1.02778 28.9065 2.04007 28.8373 2.50424 29.3267C3.70355 30.595 4.43214 32.1121 6.57906 32.3417C4.66411 37.4642 2.74919 42.7468 1.01481 47.8333C-0.0748219 51.0261 3.02644 51.6792 4.21932 48.3006C6.14069 42.8543 8.16525 37.3423 10.2478 31.8464C11.9822 31.4433 16.1795 30.5393 20.0545 29.6986C16.979 38.1281 14.9544 44.53 14.1872 47.6462C14.0454 48.2457 14.2839 48.5784 14.4129 48.8228C15.4509 50.3335 16.4374 50.3953 17.7721 52.2632C18.1332 52.7725 19.3454 53.0472 19.758 51.7931C22.6078 43.1849 25.5415 35.1081 28.2752 27.8674C29.4099 27.6192 31.4538 27.1259 32.7046 25.2593C34.929 21.9465 35.5673 22.6184 36.1026 21.6113C36.7731 20.3469 36.3281 19.1599 33.9556 19.4532C33.9556 19.4532 33.0593 19.517 31.4023 19.7059C34.0329 12.9327 36.3346 7.18789 37.9917 2.81008C38.5593 1.32751 38.6303 0.2443 37.7082 0.0250658Z" fill="#4F5665"/>
<path d="M33.8267 43.9554C34.4392 45.5034 36.3542 45.0346 35.6256 43.1662C34.884 41.2628 33.0401 35.5328 32.5564 33.6869C31.8988 31.1994 34.7486 31.8797 33.3044 33.5058C32.0665 34.9042 31.2411 35.4645 28.9523 38.1235C26.7408 40.6903 27.3404 44.0212 29.7067 44.7569C32.3759 45.5873 34.7294 42.6459 36.1865 40.488C37.5985 38.3983 36.2315 37.1726 34.8067 38.408C33.8911 39.2023 32.8337 40.4222 31.7633 41.0799C30.8929 41.6092 30.2094 41.0405 31.3701 39.4429C32.7176 37.5931 34.2263 36.0431 35.3482 34.2951C37.6371 30.7328 33.1109 28.6793 31.1637 30.9933C30.1191 32.2267 30.3835 33.4376 30.6673 34.4769C31.1251 36.1416 32.8273 41.4558 33.8267 43.9554Z" fill="#4F5665"/>
</svg>
