<svg width="23" height="27" viewBox="0 0 23 27" fill="none" xmlns="http://www.w3.org/2000/svg">
<path fill-rule="evenodd" clip-rule="evenodd" d="M12.1538 0.133997L21.0106 3.15659C22.0012 3.49525 22.6667 4.40722 22.6667 5.42853V14.283C22.6667 16.9669 21.6692 19.5655 19.8594 21.5935C19.0307 22.5228 17.9673 23.3214 16.609 24.0361L11.8218 26.5493C11.6722 26.6267 11.5076 26.6667 11.3416 26.6667C11.1769 26.6667 11.0123 26.6267 10.8627 26.5493L6.06594 24.0347C4.70484 23.3187 3.64011 22.5201 2.81275 21.5948C1.00024 19.5642 0 16.9642 0 14.2776C0 13.7363 0.452785 13.2963 1.00985 13.2963C1.56691 13.2963 2.01969 13.7363 2.01969 14.2776C2.01969 16.4936 2.84294 18.6349 4.33713 20.3095C5.00258 21.0548 5.88208 21.7081 7.02502 22.3081L11.3416 24.5707L15.6485 22.3094C16.7887 21.7108 17.6682 21.0575 18.335 20.3095C19.8265 18.6362 20.6483 16.4976 20.6483 14.283V5.42853C20.6483 5.2392 20.5249 5.07121 20.3424 5.00854L11.4856 1.98595C11.3882 1.95262 11.2798 1.95262 11.181 1.98595L2.32567 5.00854C2.14318 5.07121 2.01969 5.2392 2.01969 5.42853V7.9618C2.01969 8.50445 1.56691 8.94444 1.00985 8.94444C0.452785 8.94444 0 8.50445 0 7.9618V5.42853C0 4.40722 0.666828 3.49525 1.65747 3.15659L10.5128 0.133997C11.0425 -0.0446655 11.6256 -0.0446655 12.1538 0.133997ZM10.3817 16.4233C10.1127 16.4233 9.85753 16.3193 9.66818 16.1353L7.12161 13.6607C6.72783 13.2767 6.72783 12.6581 7.12161 12.2741C7.51677 11.8901 8.15479 11.8901 8.54857 12.2741L10.3817 14.054L14.9123 9.65283C15.306 9.27017 15.9454 9.27017 16.3392 9.65283C16.733 10.0355 16.733 10.6568 16.3392 11.0395L11.0951 16.1353C10.9058 16.3193 10.6492 16.4233 10.3817 16.4233Z" fill="#2948FF"/>
</svg>
