<svg width="680" height="322" viewBox="0 0 680 322" fill="none" xmlns="http://www.w3.org/2000/svg">
<rect width="680" height="322" rx="8" fill="#2948FF"/>
<path fill-rule="evenodd" clip-rule="evenodd" d="M680 136.82C665.606 131.128 649.918 128 633.5 128C563.636 128 507 184.636 507 254.5C507 279.318 514.147 302.466 526.495 322H576.312C557.177 305.772 545.033 281.554 545.033 254.5C545.033 205.641 584.641 166.033 633.5 166.033C650.558 166.033 666.489 170.861 680 179.225V136.82Z" fill="#4A88FF"/>
<path fill-rule="evenodd" clip-rule="evenodd" d="M32.5 214C102.364 214 159 157.364 159 87.5C159 53.5489 145.625 22.7217 123.857 0L64.7322 0C100.333 13.1187 125.723 47.3444 125.723 87.5C125.723 138.985 83.9854 180.723 32.5 180.723C21.0695 180.723 10.1195 178.665 0 174.901V209.786C10.3708 212.535 21.2644 214 32.5 214Z" fill="#4A88FF"/>
</svg>
