<svg width="38" height="32" viewBox="0 0 38 32" fill="none" xmlns="http://www.w3.org/2000/svg">
<path fill-rule="evenodd" clip-rule="evenodd" d="M7.5337 3.26354C7.5337 1.46127 9.00529 0 10.8203 0H27.1634C28.9784 0 30.4487 1.46127 30.4487 3.26354V19.492C30.4487 21.2943 28.9784 22.7555 27.1634 22.7555H10.8203C9.00529 22.7555 7.5337 21.2943 7.5337 19.492V3.26354ZM11.5313 20.5257C10.5641 20.5257 9.77932 19.7464 9.77932 18.7847V3.97486C9.77932 3.01444 10.5641 2.23519 11.5313 2.23519H13.5301C16.1647 2.23519 18.1152 4.88465 16.4303 6.56038L11.5434 11.4197L15.7381 15.7835C17.7718 17.8988 15.3893 20.5257 13.133 20.5257H11.5313ZM17.8751 2.23519H19.564C22.1973 2.23519 24.1478 4.88465 22.4643 6.56038L17.5759 11.4197L26.5611 20.5217L17.0796 20.5203C19.116 20.5203 20.4024 17.1169 18.2225 14.8631L14.893 11.4197L18.7685 7.45286C20.8558 5.31624 19.3413 2.56687 17.8751 2.23519ZM28.2017 18.7847L20.9256 11.4197L24.8024 7.45286C26.8898 5.31624 25.3739 2.56687 23.9077 2.23519H26.4457C27.4143 2.23519 28.1991 3.01444 28.1991 3.97486L28.2017 18.7847ZM1.48367 29.6329V30.9597H2.07928C2.38916 30.9597 2.62392 30.9011 2.78355 30.7865C2.94319 30.6719 3.02367 30.5041 3.02367 30.2843C3.02367 30.0672 2.94989 29.9047 2.80367 29.7954C2.65745 29.6875 2.43879 29.6329 2.14769 29.6329H1.48367ZM1.48367 27.3711V28.6326H1.94379C2.2644 28.6326 2.50318 28.5779 2.66282 28.4714C2.82111 28.3635 2.90026 28.1996 2.90026 27.9799C2.90026 27.78 2.82648 27.6295 2.67623 27.5256C2.52733 27.4231 2.30599 27.3711 2.01623 27.3711H1.48367ZM0 26.3534H2.32745C3.01563 26.3534 3.53343 26.476 3.87953 26.7211C4.22697 26.9675 4.40002 27.3325 4.40002 27.8173C4.40002 28.1424 4.3088 28.4141 4.1277 28.6299C3.94661 28.8457 3.68234 29.0015 3.3349 29.0961C3.72526 29.168 4.02441 29.3199 4.23368 29.5517C4.44295 29.7835 4.54759 30.0792 4.54759 30.4388C4.54759 30.969 4.3571 31.3619 3.97478 31.6177C3.5938 31.8721 3.00624 32 2.21208 32H0V26.3534H0ZM7.79394 27.6135L7.05748 29.7302H8.50626L7.79394 27.6135ZM6.90991 26.3534H8.73834L10.8914 32H9.2709L8.86712 30.8038H6.67784L6.25394 32H4.75417L6.90991 26.3534ZM11.2187 26.3534H13.1115L14.7575 29.7395C14.8139 29.8527 14.8796 30.0112 14.9547 30.2137C15.0285 30.4162 15.1117 30.6653 15.2015 30.9597C15.1546 30.6813 15.1184 30.4255 15.0956 30.1924C15.0728 29.9593 15.062 29.7462 15.062 29.553V26.3534H16.4303V32H14.5456L12.8352 28.4914C12.756 28.3302 12.6823 28.1544 12.6152 27.9652C12.5495 27.776 12.4877 27.5696 12.4314 27.3471C12.4851 27.6841 12.524 27.9932 12.5495 28.2756C12.5749 28.5566 12.5884 28.8057 12.5884 29.0202V32H11.2187V26.3534ZM17.5062 26.3534H19.0221V28.7937L20.7834 26.3534H22.4804L20.3917 28.9483L22.6937 32H20.8102L19.0221 29.3812V32H17.5062V26.3534ZM27.1044 29.6329V30.9597H27.7014C28.0099 30.9597 28.2447 30.9011 28.4043 30.7865C28.5653 30.6719 28.6444 30.5041 28.6444 30.2843C28.6444 30.0672 28.572 29.9047 28.4244 29.7954C28.2782 29.6875 28.0595 29.6329 27.7684 29.6329H27.1044ZM27.1044 27.3711V28.6326H27.5645C27.8851 28.6326 28.1253 28.5779 28.2836 28.4714C28.4419 28.3635 28.5223 28.1996 28.5223 27.9799C28.5223 27.78 28.4472 27.6295 28.297 27.5256C28.1481 27.4231 27.9281 27.3711 27.637 27.3711H27.1044ZM25.6207 26.3534H27.9495C28.6377 26.3534 29.1542 26.476 29.5016 26.7211C29.8477 26.9675 30.0208 27.3325 30.0208 27.8173C30.0208 28.1424 29.9309 28.4141 29.7498 28.6299C29.5674 28.8457 29.3031 29.0015 28.957 29.0961C29.346 29.168 29.6452 29.3199 29.8544 29.5517C30.0637 29.7835 30.1683 30.0792 30.1683 30.4388C30.1683 30.969 29.9778 31.3619 29.5969 31.6177C29.2159 31.8721 28.627 32 27.8328 32H25.6207V26.3534ZM32.5468 27.3471V28.7951H33.0793C33.4066 28.7951 33.6535 28.7351 33.8171 28.6179C33.9808 28.4994 34.0626 28.3222 34.0626 28.0864C34.0626 27.832 33.9714 27.6455 33.789 27.5256C33.6065 27.4057 33.3181 27.3471 32.9224 27.3471H32.5468ZM31.0644 26.3534H33.3235C34.076 26.3534 34.6341 26.4746 34.999 26.7171C35.3638 26.9595 35.5463 27.3285 35.5463 27.824C35.5463 28.1903 35.4497 28.4914 35.2579 28.7271C35.0647 28.9629 34.787 29.1201 34.4235 29.2C34.7226 29.3079 34.9627 29.617 35.1452 30.1258L35.824 32H34.2437L33.7433 30.4548C33.6629 30.2057 33.5542 30.0339 33.4147 29.938C33.2765 29.8434 33.0605 29.7954 32.7668 29.7954H32.5468V32H31.0644V26.3534ZM36.4478 26.3534H37.9636V32H36.4478V26.3534Z" fill="#1F4396"/>
</svg>
