<svg width="15" height="10" viewBox="0 0 15 10" fill="none" xmlns="http://www.w3.org/2000/svg">
<path d="M3.33333 4C3.20148 4 3.07259 4.0391 2.96295 4.11235C2.85332 4.18561 2.76787 4.28973 2.71741 4.41154C2.66696 4.53336 2.65375 4.66741 2.67948 4.79673C2.7052 4.92605 2.76869 5.04484 2.86193 5.13807C2.95516 5.23131 3.07395 5.2948 3.20327 5.32052C3.33259 5.34625 3.46664 5.33304 3.58846 5.28259C3.71027 5.23213 3.81439 5.14668 3.88765 5.03705C3.9609 4.92741 4 4.79852 4 4.66667C4 4.48986 3.92976 4.32029 3.80474 4.19526C3.67971 4.07024 3.51014 4 3.33333 4ZM11.3333 4C11.2015 4 11.0726 4.0391 10.963 4.11235C10.8533 4.18561 10.7679 4.28973 10.7174 4.41154C10.667 4.53336 10.6538 4.66741 10.6795 4.79673C10.7052 4.92605 10.7687 5.04484 10.8619 5.13807C10.9552 5.23131 11.074 5.2948 11.2033 5.32052C11.3326 5.34625 11.4666 5.33304 11.5885 5.28259C11.7103 5.23213 11.8144 5.14668 11.8876 5.03705C11.9609 4.92741 12 4.79852 12 4.66667C12 4.48986 11.9298 4.32029 11.8047 4.19526C11.6797 4.07024 11.5101 4 11.3333 4ZM12.6667 0H2C1.46957 0 0.960859 0.210714 0.585786 0.585786C0.210714 0.960859 0 1.46957 0 2V7.33333C0 7.86377 0.210714 8.37247 0.585786 8.74755C0.960859 9.12262 1.46957 9.33333 2 9.33333H12.6667C13.1971 9.33333 13.7058 9.12262 14.0809 8.74755C14.456 8.37247 14.6667 7.86377 14.6667 7.33333V2C14.6667 1.46957 14.456 0.960859 14.0809 0.585786C13.7058 0.210714 13.1971 0 12.6667 0ZM13.3333 7.33333C13.3333 7.51014 13.2631 7.67971 13.1381 7.80474C13.013 7.92976 12.8435 8 12.6667 8H2C1.82319 8 1.65362 7.92976 1.5286 7.80474C1.40357 7.67971 1.33333 7.51014 1.33333 7.33333V2C1.33333 1.82319 1.40357 1.65362 1.5286 1.5286C1.65362 1.40357 1.82319 1.33333 2 1.33333H12.6667C12.8435 1.33333 13.013 1.40357 13.1381 1.5286C13.2631 1.65362 13.3333 1.82319 13.3333 2V7.33333ZM7.33333 2.66667C6.93777 2.66667 6.55109 2.78396 6.22219 3.00373C5.89329 3.22349 5.63695 3.53585 5.48557 3.9013C5.3342 4.26675 5.29459 4.66888 5.37176 5.05685C5.44893 5.44481 5.63941 5.80118 5.91912 6.08088C6.19882 6.36059 6.55519 6.55107 6.94315 6.62824C7.33111 6.70541 7.73325 6.6658 8.0987 6.51443C8.46415 6.36305 8.77651 6.10671 8.99627 5.77781C9.21604 5.44891 9.33333 5.06223 9.33333 4.66667C9.33333 4.13623 9.12262 3.62753 8.74755 3.25245C8.37247 2.87738 7.86377 2.66667 7.33333 2.66667ZM7.33333 5.33333C7.20148 5.33333 7.07259 5.29423 6.96295 5.22098C6.85332 5.14773 6.76787 5.04361 6.71741 4.92179C6.66696 4.79997 6.65375 4.66593 6.67948 4.53661C6.7052 4.40729 6.76869 4.2885 6.86193 4.19526C6.95516 4.10203 7.07395 4.03853 7.20327 4.01281C7.33259 3.98709 7.46664 4.00029 7.58846 4.05075C7.71027 4.10121 7.81439 4.18665 7.88765 4.29629C7.9609 4.40592 8 4.53481 8 4.66667C8 4.84348 7.92976 5.01305 7.80474 5.13807C7.67971 5.26309 7.51014 5.33333 7.33333 5.33333Z" fill="#4F5665"/>
</svg>
