<svg width="24" height="24" viewBox="0 0 24 24" fill="none" xmlns="http://www.w3.org/2000/svg">
<path fill-rule="evenodd" clip-rule="evenodd" d="M15.7496 7.49997C15.7496 8.49453 15.3545 9.44835 14.6513 10.1516C13.948 10.8549 12.9942 11.25 11.9996 11.25C11.005 11.25 10.0512 10.8549 9.34797 10.1516C8.64469 9.44835 8.24961 8.49453 8.24961 7.49997C8.24961 6.50541 8.64469 5.55158 9.34797 4.84832C10.0512 4.14506 11.005 3.74997 11.9996 3.74997C12.9942 3.74997 13.948 4.14506 14.6513 4.84832C15.3545 5.55158 15.7496 6.50541 15.7496 7.49997ZM15.8411 12.1095C16.7881 11.3199 17.4688 10.2578 17.7908 9.06768C18.1127 7.87751 18.0601 6.61707 17.6402 5.45784C17.2204 4.29861 16.4536 3.29687 15.4442 2.58888C14.4348 1.88091 13.2318 1.5011 11.9989 1.5011C10.7659 1.5011 9.56293 1.88091 8.55354 2.58888C7.54414 3.29687 6.77734 4.29861 6.35749 5.45784C5.93763 6.61707 5.88507 7.87751 6.20698 9.06768C6.5289 10.2578 7.20964 11.3199 8.15661 12.1095C6.67999 12.8076 5.42101 13.8941 4.51446 15.2527C3.6079 16.6114 3.0879 18.1909 3.01011 19.8225C3.00288 20.1165 3.11103 20.4016 3.31143 20.6167C3.51181 20.832 3.7885 20.9602 4.08226 20.9739C4.37601 20.9877 4.66345 20.8858 4.88304 20.6902C5.10262 20.4946 5.2369 20.2209 5.25711 19.9275C5.33889 18.1942 6.08496 16.5591 7.34047 15.3615C8.59597 14.1638 10.2645 13.4956 11.9996 13.4956C13.7347 13.4956 15.4033 14.1638 16.6588 15.3615C17.9143 16.5591 18.6604 18.1942 18.7421 19.9275C18.7459 20.0773 18.7793 20.2248 18.8408 20.3614C18.9023 20.4981 18.9905 20.6211 19.1002 20.7231C19.2098 20.8252 19.3388 20.9044 19.4794 20.956C19.6201 21.0076 19.7696 21.0306 19.9193 21.0235C20.069 21.0166 20.2157 20.9797 20.351 20.9152C20.4862 20.8507 20.6072 20.76 20.7068 20.6481C20.8066 20.5362 20.8828 20.4055 20.9312 20.2638C20.9798 20.122 20.9995 19.9719 20.9891 19.8225C20.9111 18.1908 20.3909 16.6111 19.4842 15.2524C18.5773 13.8938 17.318 12.8074 15.8411 12.1095Z" fill="white"/>
</svg>
