<svg width="48" height="48" viewBox="0 0 48 48" fill="none" xmlns="http://www.w3.org/2000/svg">
<circle cx="24" cy="24" r="24" fill="white"/>
<path d="M25.4348 24.2427C26.0236 23.733 26.4958 23.1027 26.8195 22.3944C27.1431 21.6862 27.3107 20.9166 27.3106 20.1378C27.3106 18.6746 26.7294 17.2713 25.6947 16.2366C24.66 15.2019 23.2567 14.6206 21.7934 14.6206C20.3301 14.6206 18.9268 15.2019 17.8921 16.2366C16.8574 17.2713 16.2762 18.6746 16.2762 20.1378C16.2762 20.9166 16.4437 21.6862 16.7673 22.3944C17.091 23.1027 17.5633 23.733 18.152 24.2427C16.6074 24.9421 15.2968 26.0717 14.3771 27.4962C13.4574 28.9208 12.9674 30.5801 12.9658 32.2758C12.9658 32.5684 13.0821 32.8491 13.289 33.056C13.4959 33.263 13.7766 33.3792 14.0693 33.3792C14.3619 33.3792 14.6426 33.263 14.8495 33.056C15.0565 32.8491 15.1727 32.5684 15.1727 32.2758C15.1727 30.5199 15.8703 28.8359 17.1119 27.5942C18.3535 26.3526 20.0375 25.6551 21.7934 25.6551C23.5493 25.6551 25.2333 26.3526 26.4749 27.5942C27.7166 28.8359 28.4141 30.5199 28.4141 32.2758C28.4141 32.5684 28.5304 32.8491 28.7373 33.056C28.9442 33.263 29.2249 33.3792 29.5175 33.3792C29.8102 33.3792 30.0909 33.263 30.2978 33.056C30.5047 32.8491 30.621 32.5684 30.621 32.2758C30.6194 30.5801 30.1294 28.9208 29.2097 27.4962C28.29 26.0717 26.9795 24.9421 25.4348 24.2427V24.2427ZM21.7934 23.4482C21.1387 23.4482 20.4987 23.254 19.9543 22.8903C19.4099 22.5266 18.9856 22.0095 18.735 21.4047C18.4845 20.7998 18.4189 20.1342 18.5467 19.492C18.6744 18.8499 18.9897 18.26 19.4526 17.7971C19.9156 17.3341 20.5054 17.0188 21.1476 16.8911C21.7897 16.7634 22.4553 16.8289 23.0602 17.0795C23.6651 17.33 24.1821 17.7543 24.5459 18.2987C24.9096 18.8431 25.1038 19.4831 25.1038 20.1378C25.1038 21.0158 24.755 21.8578 24.1342 22.4786C23.5134 23.0994 22.6714 23.4482 21.7934 23.4482ZM34.7148 20.833C34.6122 20.7296 34.4902 20.6475 34.3557 20.5915C34.2212 20.5355 34.077 20.5066 33.9313 20.5066C33.7857 20.5066 33.6414 20.5355 33.507 20.5915C33.3725 20.6475 33.2505 20.7296 33.1479 20.833L30.941 23.0399L30.2569 22.3447C30.1543 22.2413 30.0322 22.1592 29.8978 22.1032C29.7633 22.0472 29.6191 22.0183 29.4734 22.0183C29.3277 22.0183 29.1835 22.0472 29.049 22.1032C28.9146 22.1592 28.7925 22.2413 28.69 22.3447C28.4844 22.5515 28.3691 22.8312 28.3691 23.1227C28.3691 23.4142 28.4844 23.6939 28.69 23.9006L30.1686 25.3792C30.3753 25.5847 30.655 25.7001 30.9465 25.7001C31.238 25.7001 31.5177 25.5847 31.7244 25.3792L34.6706 22.433C34.7821 22.333 34.8719 22.2113 34.9348 22.0754C34.9977 21.9395 35.0322 21.7922 35.0364 21.6425C35.0405 21.4928 35.0141 21.3439 34.9588 21.2047C34.9035 21.0655 34.8205 20.9391 34.7148 20.833V20.833Z" fill="#2948FF"/>
</svg>
