<svg width="14" height="17" viewBox="0 0 14 17" fill="none" xmlns="http://www.w3.org/2000/svg">
<path d="M11.4123 8.93642C11.3945 6.81208 13.1509 5.77958 13.2281 5.73211C12.2312 4.28423 10.6883 4.08248 10.1484 4.06468C8.85476 3.9282 7.59677 4.84202 6.93811 4.84202C6.26757 4.84202 5.24694 4.08248 4.1551 4.10028C2.74876 4.12402 1.4255 4.93696 0.707494 6.20682C-0.781918 8.78807 0.327724 12.5858 1.7578 14.6745C2.4758 15.6951 3.30655 16.8404 4.40432 16.7989C5.47243 16.7573 5.87593 16.1165 7.16359 16.1165C8.44532 16.1165 8.81915 16.7989 9.93473 16.7751C11.0859 16.7573 11.8039 15.7486 12.4982 14.7161C13.323 13.5471 13.6553 12.39 13.6672 12.3306C13.6375 12.3188 11.436 11.4761 11.4123 8.93642Z" fill="#2948FF"/>
<path d="M9.30611 2.694C9.8817 1.97599 10.2733 0.996898 10.1665 0C9.33578 0.0356035 8.29141 0.57559 7.69209 1.28173C7.16397 1.90479 6.68925 2.91949 6.80793 3.87485C7.74549 3.94605 8.70679 3.40013 9.30611 2.694Z" fill="#2948FF"/>
</svg>
