<svg width="48" height="48" viewBox="0 0 48 48" fill="none" xmlns="http://www.w3.org/2000/svg">
<circle cx="24" cy="24" r="24" fill="white"/>
<path d="M17.3795 22.8964C17.1613 22.8964 16.948 22.9612 16.7665 23.0824C16.585 23.2037 16.4436 23.376 16.3601 23.5776C16.2766 23.7793 16.2547 24.0011 16.2973 24.2152C16.3399 24.4292 16.445 24.6258 16.5993 24.7802C16.7536 24.9345 16.9502 25.0396 17.1643 25.0821C17.3783 25.1247 17.6002 25.1029 17.8018 25.0193C18.0034 24.9358 18.1758 24.7944 18.297 24.6129C18.4183 24.4315 18.483 24.2181 18.483 23.9999C18.483 23.7072 18.3667 23.4266 18.1598 23.2196C17.9529 23.0127 17.6722 22.8964 17.3795 22.8964ZM30.6209 22.8964C30.4027 22.8964 30.1893 22.9612 30.0079 23.0824C29.8264 23.2037 29.685 23.376 29.6015 23.5776C29.518 23.7793 29.4961 24.0011 29.5387 24.2152C29.5813 24.4292 29.6864 24.6258 29.8407 24.7802C29.995 24.9345 30.1916 25.0396 30.4057 25.0821C30.6197 25.1247 30.8416 25.1029 31.0432 25.0193C31.2448 24.9358 31.4172 24.7944 31.5384 24.6129C31.6597 24.4315 31.7244 24.2181 31.7244 23.9999C31.7244 23.7072 31.6081 23.4266 31.4012 23.2196C31.1942 23.0127 30.9136 22.8964 30.6209 22.8964ZM32.8278 16.2758H15.1726C14.2947 16.2758 13.4527 16.6245 12.8319 17.2453C12.2111 17.8661 11.8623 18.7081 11.8623 19.5861V28.4137C11.8623 29.2916 12.2111 30.1336 12.8319 30.7545C13.4527 31.3753 14.2947 31.724 15.1726 31.724H32.8278C33.7058 31.724 34.5478 31.3753 35.1686 30.7545C35.7894 30.1336 36.1382 29.2916 36.1382 28.4137V19.5861C36.1382 18.7081 35.7894 17.8661 35.1686 17.2453C34.5478 16.6245 33.7058 16.2758 32.8278 16.2758ZM33.9313 28.4137C33.9313 28.7063 33.815 28.987 33.6081 29.1939C33.4011 29.4009 33.1205 29.5171 32.8278 29.5171H15.1726C14.88 29.5171 14.5993 29.4009 14.3924 29.1939C14.1855 28.987 14.0692 28.7063 14.0692 28.4137V19.5861C14.0692 19.2934 14.1855 19.0128 14.3924 18.8058C14.5993 18.5989 14.88 18.4827 15.1726 18.4827H32.8278C33.1205 18.4827 33.4011 18.5989 33.6081 18.8058C33.815 19.0128 33.9313 19.2934 33.9313 19.5861V28.4137ZM24.0002 20.6895C23.3455 20.6895 22.7055 20.8837 22.1611 21.2474C21.6167 21.6112 21.1924 22.1282 20.9419 22.7331C20.6913 23.338 20.6258 24.0036 20.7535 24.6457C20.8812 25.2879 21.1965 25.8777 21.6595 26.3407C22.1224 26.8036 22.7123 27.1189 23.3544 27.2466C23.9966 27.3744 24.6622 27.3088 25.2671 27.0583C25.8719 26.8077 26.3889 26.3834 26.7527 25.839C27.1164 25.2946 27.3106 24.6546 27.3106 23.9999C27.3106 23.1219 26.9618 22.2799 26.341 21.6591C25.7202 21.0383 24.8782 20.6895 24.0002 20.6895ZM24.0002 25.1033C23.782 25.1033 23.5687 25.0386 23.3872 24.9174C23.2057 24.7961 23.0643 24.6238 22.9808 24.4222C22.8973 24.2205 22.8754 23.9987 22.918 23.7846C22.9606 23.5706 23.0657 23.374 23.22 23.2196C23.3743 23.0653 23.5709 22.9602 23.785 22.9176C23.999 22.8751 24.2209 22.8969 24.4225 22.9804C24.6241 23.064 24.7965 23.2054 24.9177 23.3869C25.039 23.5683 25.1037 23.7817 25.1037 23.9999C25.1037 24.2925 24.9874 24.5732 24.7805 24.7802C24.5736 24.9871 24.2929 25.1033 24.0002 25.1033Z" fill="#2948FF"/>
</svg>
